<?xml version="1.0" encoding="UTF-8" standalone="no"?>
<!-- Created with Inkscape (http://www.inkscape.org/) -->

<svg
   xmlns:dc="http://purl.org/dc/elements/1.1/"
   xmlns:cc="http://creativecommons.org/ns#"
   xmlns:rdf="http://www.w3.org/1999/02/22-rdf-syntax-ns#"
   xmlns:svg="http://www.w3.org/2000/svg"
   xmlns="http://www.w3.org/2000/svg"
   xmlns:sodipodi="http://sodipodi.sourceforge.net/DTD/sodipodi-0.dtd"
   xmlns:inkscape="http://www.inkscape.org/namespaces/inkscape"
   width="8.5in"
   height="11in"
   viewBox="0 0 765 990"
   id="svg2"
   version="1.1"
   inkscape:version="0.91 r13725"
   sodipodi:docname="square_plain.svg">
  <defs
     id="defs4" />
  <sodipodi:namedview
     id="base"
     pagecolor="#ffffff"
     bordercolor="#666666"
     borderopacity="1.0"
     inkscape:pageopacity="0.0"
     inkscape:pageshadow="2"
     inkscape:zoom="0.98994949"
     inkscape:cx="375"
     inkscape:cy="748.57143"
     inkscape:document-units="in"
     inkscape:current-layer="layer1"
     showgrid="false"
     units="in"
     inkscape:window-width="2560"
     inkscape:window-height="1348"
     inkscape:window-x="0"
     inkscape:window-y="0"
     inkscape:window-maximized="1" />
  <metadata
     id="metadata7">
    <rdf:RDF>
      <cc:Work
         rdf:about="">
        <dc:format>image/svg+xml</dc:format>
        <dc:type
           rdf:resource="http://purl.org/dc/dcmitype/StillImage" />
        <dc:title></dc:title>
      </cc:Work>
    </rdf:RDF>
  </metadata>
  <g
     inkscape:label="Layer 1"
     inkscape:groupmode="layer"
     id="layer1"
     transform="translate(0,-62.362205)">
    <rect
       style="fill:#0000ff;fill-rule:evenodd;stroke:#000000;stroke-width:1px;stroke-linecap:butt;stroke-linejoin:miter;stroke-opacity:1"
       id="rect3340"
       width="90"
       height="90"
       x="45.456863"
       y="115.95079" />
    <circle
       style="fill:#ff0000;fill-rule:evenodd;stroke:#000000;stroke-width:1px;stroke-linecap:butt;stroke-linejoin:miter;stroke-opacity:1"
       id="path3399"
       cx="221.2234"
       cy="174.53964"
       r="26.263966" />
    <path
       style="fill:none;fill-rule:evenodd;stroke:#000000;stroke-width:1px;stroke-linecap:butt;stroke-linejoin:miter;stroke-opacity:1"
       d="m 167.68532,89.686829 c 64.64977,1.010153 97.9848,20.203051 97.9848,20.203051 l -23.23351,18.18275 c 0,0 -38.3858,-22.22336 -47.47717,-6.06092 -9.09137,16.16244 -32.32488,-14.14214 -32.32488,-14.14214 z"
       id="path3401"
       inkscape:connector-curvature="0" />
    <path
       style="fill:none;fill-rule:evenodd;stroke:#000000;stroke-width:1px;stroke-linecap:butt;stroke-linejoin:miter;stroke-opacity:1"
       d="m 39.395949,255.35185 c 3.377834,0.50241 5.159449,-3.31018 8.081221,-4.04062 0.653328,-0.16332 1.366977,0.16334 2.020305,0 0.730443,-0.18261 1.282003,-0.86248 2.020305,-1.01015 0.990536,-0.1981 2.039921,0.19812 3.030457,0 0.738302,-0.14765 1.321234,-0.73052 2.020306,-1.01015 0.988636,-0.39546 1.98634,-0.80133 3.030457,-1.01016 0.660358,-0.13207 1.381429,0.21297 2.020305,0 0.451754,-0.15057 0.584235,-0.79719 1.010153,-1.01015 0.210695,-0.10535 5.050347,-1e-4 5.050763,0 0.730442,0.18261 1.306019,0.77206 2.020305,1.01015 0.319438,0.10648 0.673435,0 1.010152,0 1.010153,0.33673 2.078077,0.53398 3.030458,1.01016 0.425918,0.21296 0.584235,0.79719 1.010152,1.01015 0.30117,0.15058 0.708984,-0.15058 1.010153,0 0.425918,0.21296 0.673435,0.67343 1.010152,1.01015 0.336718,0.33673 0.797194,0.58425 1.010153,1.01016 0.894096,1.7882 -1.502538,0.34518 1.010153,2.02031 0.62647,0.41765 1.393835,0.59251 2.020305,1.01015 1.486412,0.99094 2.554197,3.04967 4.04061,4.04061 3.014798,2.00987 0.916628,0.38536 4.04061,1.01015 1.044117,0.20883 1.986341,0.80133 3.030458,1.01016 1.320714,0.26414 2.69374,0 4.04061,0 0.673435,0 1.34687,0 2.020305,0 0.673435,0 1.366977,0.16333 2.020303,0 1.46089,-0.36522 2.57973,-1.65509 4.04061,-2.02031 2.1338,-0.53345 2.13288,0.89759 4.04061,-1.01015 0.5324,-0.5324 0.47776,-1.48791 1.01015,-2.02031 0.5324,-0.53239 1.39384,-0.5925 2.02031,-1.01015 2.31154,-1.54102 -0.63164,-0.7996 3.03046,-2.0203 0.31944,-0.10648 0.70898,0.15058 1.01015,0 0.42592,-0.21296 0.5584,-0.85957 1.01015,-1.01016 0.95832,-0.31944 2.02031,0 3.03046,0 3.5389,0 5.36431,-0.2322 9.09137,1.01016 0.71429,0.23809 1.34687,0.67343 2.02031,1.01015 0.67343,0.33672 1.39383,0.59251 2.0203,1.01015 0.39622,0.26414 0.58424,0.7972 1.01016,1.01015 0.30117,0.15059 0.77205,-0.23809 1.01015,0 0.3621,0.36211 2.76475,3.98795 3.03046,5.05077 0.16333,0.65332 0,1.34687 0,2.0203 0,1.68359 0,3.36718 0,5.05076 0,0.99883 0.21951,3.16257 0,4.04061 -0.25825,1.03301 -0.75191,1.99746 -1.01016,3.03046 -0.0817,0.32667 0.15059,0.70899 0,1.01016 -0.21296,0.42591 -0.67343,0.67343 -1.01015,1.01015 -0.33672,0.33672 -0.58423,0.79719 -1.01015,1.01015 -0.30117,0.15058 -0.77206,-0.23809 -1.01015,0 -0.2381,0.2381 0.30117,0.85957 0,1.01015 -1.20468,0.60234 -2.73396,-0.32666 -4.04061,0 -0.73045,0.18261 -1.28987,0.82754 -2.02031,1.01016 -0.65333,0.16333 -1.34687,0 -2.0203,0 -0.67344,0 -1.34687,0 -2.02031,0 -3.72115,0 -7.56534,0.40838 -11.11168,-1.01016 -0.44213,-0.17685 -0.58423,-0.79719 -1.01015,-1.01015 -0.95238,-0.47619 -2.04182,-0.6147 -3.03046,-1.01015 -0.69907,-0.27963 -1.30602,-0.77206 -2.0203,-1.01015 -0.31944,-0.10648 -0.69072,0.10647 -1.01016,0 -6.27012,-2.09005 3.35727,0.0817 -5.05076,-2.02031 -0.326662,-0.0817 -0.673433,0 -1.010151,0 -2.69374,0 -5.38748,0 -8.08122,0 -0.336717,0 -0.673435,0 -1.010152,0 -0.336718,0 -0.859568,-0.30117 -1.010153,0 -0.301169,0.60234 0.212959,1.38143 0,2.02031 -0.150585,0.45175 -0.859568,0.55839 -1.010153,1.01015 -0.319438,0.95831 0,2.0203 0,3.03046 0,0.33671 0,0.67343 0,1.01015 0,0.33672 0.238096,0.77206 0,1.01015 -0.238095,0.2381 -0.772057,-0.23809 -1.010152,0 -0.238095,0.2381 0.238095,0.77206 0,1.01015 -0.238095,0.2381 -0.772057,-0.23809 -1.010153,0 -0.238095,0.2381 0.238096,0.77206 0,1.01016 -0.238095,0.23809 -0.673435,0 -1.010152,0 -0.673435,0 -1.34687,0 -2.020305,0 -0.679322,0 -6.467846,0.1508 -7.071068,0 -0.461973,-0.1155 -0.584235,-0.7972 -1.010153,-1.01016 -0.669453,-0.33472 -3.193975,0.28221 -4.04061,0 -0.714286,-0.23809 -1.306019,-0.77205 -2.020305,-1.01015 -0.319438,-0.10648 -0.772057,0.2381 -1.010152,0 -0.238096,-0.23809 0.238095,-0.77206 0,-1.01015 -1.346871,-1.34687 -1.010153,1.68359 -1.010153,-1.01015"
       id="path3403"
       inkscape:connector-curvature="0" />
    <path
       sodipodi:type="star"
       style="fill:#ffff00;fill-rule:evenodd;stroke:#000000;stroke-width:1px;stroke-linecap:butt;stroke-linejoin:miter;stroke-opacity:1"
       id="path3405"
       sodipodi:sides="5"
       sodipodi:cx="230.31477"
       sodipodi:cy="253.33155"
       sodipodi:r1="36.210835"
       sodipodi:r2="18.105417"
       sodipodi:arg1="0.52606642"
       sodipodi:arg2="1.1543849"
       inkscape:flatsided="false"
       inkscape:rounded="0"
       inkscape:randomized="0"
       d="m 261.6295,271.51429 -23.99143,-1.6245 -14.93933,18.84261 -5.86877,-23.31921 -22.53689,-8.38546 20.36433,-12.78756 1.01077,-24.02511 18.45461,15.41606 23.16159,-6.46288 -8.95876,22.31521 z"
       inkscape:transform-center-x="2.3534844"
       inkscape:transform-center-y="1.1421841" />
    <path
       style="fill:#000000;fill-opacity:1;fill-rule:nonzero;stroke:none;stroke-width:1px;stroke-linecap:butt;stroke-linejoin:miter;stroke-opacity:1"
       id="path3407"
       d="m 308.71083,109.19048 c -0.0787,5.68858 -0.0795,11.3784 -0.0396,17.06732 -0.0428,3.4089 0.27804,6.82497 0.84456,10.185 0.19967,2.41782 1.29895,4.27189 2.69168,6.17559 1.1319,1.82304 2.71973,2.55187 4.7436,2.99184 1.73648,0.21744 3.52534,0.66946 5.06118,-0.3341 1.50446,-0.90667 3.13914,-1.51675 4.74539,-2.20838 1.75302,-1.42576 3.78065,-1.78283 5.97173,-1.67315 2.86986,0.59364 5.69473,1.34984 8.35385,2.58949 2.70508,1.31312 5.16977,2.92596 7.23305,5.11843 1.47114,1.48867 1.67265,3.49145 1.82023,5.47609 -0.0197,1.81207 -0.49698,3.57446 -0.73063,5.36584 -0.18503,2.19504 -0.96974,4.2983 -1.95702,6.25081 -1.22786,2.0172 -2.52704,3.96938 -4.23995,5.60257 -5.65077,4.34594 -1.18298,1.00093 -15.59336,9.2992 -1.78144,1.02585 -3.62406,1.77243 -5.59324,2.34116 -2.03391,0.61002 -4.04619,1.25231 -6.05714,1.91482 -4.72477,2.34985 -4.47175,2.24255 11.18702,-6.39298 0.34714,-0.19145 -0.64881,0.45676 -0.95684,0.70631 -1.00079,0.8108 -1.83476,1.73979 -2.66543,2.7172 -1.56658,1.70979 -2.69589,3.6176 -3.29615,5.85079 -0.39702,1.72653 -0.39844,3.50232 -0.40997,5.26348 -0.14254,2.01026 0.45372,3.5854 1.90264,4.96806 1.94457,1.57842 4.25797,2.60296 6.66293,3.24019 2.50513,0.8305 5.12306,1.30829 7.54177,2.37949 2.16014,0.98199 2.98717,2.86736 3.85215,4.90742 0.80182,2.04435 1.04888,4.21641 1.18234,6.38921 0.0717,2.33294 0.19912,4.67343 0.0217,7.00289 -0.26981,2.60375 -1.11646,5.07761 -2.26488,7.41384 -1.72602,2.82042 -3.82685,5.35601 -6.15896,7.68895 -2.52597,2.49543 -5.49334,4.41504 -8.49767,6.26874 -37.06297,21.29374 -3.93604,2.23378 -2.95098,1.67719 0.47331,-0.26745 -0.92353,0.57474 -1.36986,0.88512 -1.25754,0.87448 -2.40455,1.90302 -3.59834,2.86005 -1.78697,1.36899 -3.6899,2.58819 -5.10893,4.35845 -0.16966,0.25623 -0.33931,0.51246 -0.50896,0.76868 0,0 -13.80959,6.01122 -13.80959,6.01122 l 0,0 c 0.17756,-0.24393 0.35511,-0.48786 0.53267,-0.73178 1.15108,-2.14732 3.00421,-3.47467 4.95105,-4.87203 1.72913,-1.17602 3.12946,-2.8385 4.93133,-3.90435 0.97231,-0.57514 32.74354,-18.90031 2.95774,-1.65448 3.01082,-1.79129 6.02513,-3.58997 8.63159,-5.95688 2.35086,-2.22074 4.45165,-4.59809 6.29009,-7.26597 1.30549,-2.09064 2.11772,-4.42655 2.50503,-6.86168 0.31259,-2.24612 0.10909,-4.52743 0.0917,-6.78888 -0.10038,-2.00198 -0.25336,-4.0208 -0.96437,-5.91598 -0.73393,-1.72739 -1.26305,-3.23144 -3.21572,-3.91667 -2.43262,-0.89785 -4.96458,-1.48389 -7.43154,-2.27804 -2.57337,-0.84856 -5.07868,-2.00859 -7.09211,-3.86346 -1.58507,-1.6929 -2.63848,-3.58466 -2.5052,-5.97371 -0.004,-1.85658 -0.0403,-3.73041 0.27705,-5.56605 0.45226,-2.42766 1.32666,-4.64949 3.03064,-6.49376 4.56709,-5.84167 10.74978,-9.92931 18.14938,-12.16459 1.9911,-0.68122 4.04485,-1.17315 6.0291,-1.87984 1.35698,-0.50174 2.64299,-1.06448 3.92221,-1.74486 0.49082,-0.26105 1.93899,-1.0883 1.46,-0.80613 -13.97245,8.23117 -14.79914,8.75372 -9.96647,5.78187 0.0291,-0.0239 1.90081,-1.55506 1.98473,-1.64782 0.94068,-1.03971 1.48674,-2.46173 2.3962,-3.53368 1.19198,-1.58905 1.98892,-3.70283 2.20829,-5.6616 0.21172,-1.72367 0.49226,-3.42921 0.87538,-5.12363 -0.0771,-1.64464 -0.0603,-3.31906 -1.30021,-4.55705 -1.96081,-2.01531 -4.28497,-3.49872 -6.85063,-4.65091 -2.56319,-1.01974 -5.27458,-1.86351 -8.04373,-2.02168 -2.08637,0.20303 -3.80231,1.16505 -5.62571,2.13688 -1.61914,0.68897 -3.16418,1.52989 -4.80497,2.16449 -1.8687,0.30333 -3.76674,-0.01 -5.59661,-0.43998 -2.20881,-0.72104 -4.0245,-1.83527 -5.28209,-3.85122 -1.50131,-2.07673 -2.77042,-4.15554 -3.00275,-6.77595 -0.66137,-3.43879 -0.88492,-6.98191 -0.86117,-10.47805 0.0395,-5.67548 0.0397,-11.35186 -0.0396,-17.02697 0,0 13.35044,-6.80239 13.35044,-6.80239 z"
       inkscape:connector-curvature="0" />
    <path
       style="fill:none;fill-rule:evenodd;stroke:#000000;stroke-width:1px;stroke-linecap:butt;stroke-linejoin:miter;stroke-opacity:1"
       d="m 118.18785,322.02192 70.71068,0 -19.1929,43.43656 -58.58885,7.07107 10.10153,-29.29443 -37.375649,-1.01015 -8.08122,-20.20305 -26.263966,15.15228 -7.071068,-24.24366"
       id="path3409"
       inkscape:connector-curvature="0" />
  </g>
</svg>
