<?xml version="1.0" encoding="UTF-8" standalone="no"?>
<svg
   xmlns:dc="http://purl.org/dc/elements/1.1/"
   xmlns:cc="http://creativecommons.org/ns#"
   xmlns:rdf="http://www.w3.org/1999/02/22-rdf-syntax-ns#"
   xmlns:svg="http://www.w3.org/2000/svg"
   xmlns="http://www.w3.org/2000/svg"
   xmlns:sodipodi="http://sodipodi.sourceforge.net/DTD/sodipodi-0.dtd"
   xmlns:inkscape="http://www.inkscape.org/namespaces/inkscape"
   version="1.0"
   width="600"
   height="600"
   id="s1"
   inkscape:version="0.91 r13725"
   sodipodi:docname="empire_1.svg">
  <metadata
     id="metadata3782">
    <rdf:RDF>
      <cc:Work
         rdf:about="">
        <dc:format>image/svg+xml</dc:format>
        <dc:type
           rdf:resource="http://purl.org/dc/dcmitype/StillImage" />
        <dc:title></dc:title>
      </cc:Work>
    </rdf:RDF>
  </metadata>
  <defs
     id="defs3780" />
  <sodipodi:namedview
     pagecolor="#ffffff"
     bordercolor="#666666"
     borderopacity="1"
     objecttolerance="10"
     gridtolerance="10"
     guidetolerance="10"
     inkscape:pageopacity="0"
     inkscape:pageshadow="2"
     inkscape:window-width="2560"
     inkscape:window-height="1348"
     id="namedview3778"
     showgrid="false"
     inkscape:zoom="1.2303658"
     inkscape:cx="408.77189"
     inkscape:cy="285.70789"
     inkscape:window-x="0"
     inkscape:window-y="1"
     inkscape:window-maximized="1"
     inkscape:current-layer="s1"
     fit-margin-top="0"
     fit-margin-left="0"
     fit-margin-right="0"
     fit-margin-bottom="0" />
  <path
     style="fill:#000000;fill-opacity:1;stroke:none"
     d="m 300.00047,129.87536 c -11.23164,-8e-5 -22.31252,1.13739 -32.9375,3.21875 l 16.03125,80.6875 c -19.5063,3.837 -36.6307,14.15181 -49.1875,28.59375 l -61.96875,-54.1875 c -14.3613,16.44936 -25.69447,35.61653 -32.90625,56.71875 l 77.96875,26.75 c -3.0163,8.86938 -4.8125,18.45839 -4.8125,28.34375 0,9.96138 1.75156,19.41597 4.8125,28.34375 l -77.75,26.75 c 7.221,21.08224 18.32878,40.28593 32.6875,56.71875 l 61.96875,-54.1875 c 12.54606,14.37426 29.74038,24.51727 49.1875,28.34375 l -16.03125,80.71875 c 10.62506,2.08148 21.70586,3.4375 32.9375,3.4375 11.23164,8e-5 22.31252,-1.35616 32.9375,-3.4375 l -16.03125,-80.71875 c 19.44712,-3.82654 36.64144,-13.96949 49.1875,-28.34375 l 61.96875,54.1875 c 14.35858,-16.43274 25.4665,-35.63665 32.6875,-56.71875 l -77.75,-26.75 c 3.06094,-8.92772 4.8125,-18.38237 4.8125,-28.34375 0,-9.88536 -1.7962,-19.47437 -4.8125,-28.34375 l 77.96875,-26.75 c -7.21178,-21.10238 -18.54481,-40.26939 -32.90625,-56.71875 l -61.96875,54.1875 c -12.5568,-14.44194 -29.6812,-24.75675 -49.1875,-28.59375 l 16.03125,-80.6875 c -10.62506,-2.08136 -21.70586,-3.21875 -32.9375,-3.21875 z"
     id="path3796"
     inkscape:connector-curvature="0"
     sodipodi:nodetypes="sccccccsccccccsccccccsccccccs" />
</svg>
