<?xml version="1.0" encoding="UTF-8" standalone="no"?>
<svg
   xmlns:dc="http://purl.org/dc/elements/1.1/"
   xmlns:cc="http://creativecommons.org/ns#"
   xmlns:rdf="http://www.w3.org/1999/02/22-rdf-syntax-ns#"
   xmlns:svg="http://www.w3.org/2000/svg"
   xmlns="http://www.w3.org/2000/svg"
   xmlns:sodipodi="http://sodipodi.sourceforge.net/DTD/sodipodi-0.dtd"
   xmlns:inkscape="http://www.inkscape.org/namespaces/inkscape"
   version="1.0"
   width="600"
   height="600"
   id="s1"
   inkscape:version="0.91 r13725"
   sodipodi:docname="empire_mod.svg">
  <sodipodi:namedview
     pagecolor="#ffffff"
     bordercolor="#666666"
     borderopacity="1"
     objecttolerance="10"
     gridtolerance="10"
     guidetolerance="10"
     inkscape:pageopacity="0"
     inkscape:pageshadow="2"
     inkscape:window-width="1910"
     inkscape:window-height="1054"
     id="namedview3778"
     showgrid="false"
     inkscape:zoom="1.2303658"
     inkscape:cx="-180.04333"
     inkscape:cy="277.46824"
     inkscape:window-x="0"
     inkscape:window-y="1"
     inkscape:window-maximized="0"
     inkscape:current-layer="s1"
     fit-margin-top="0"
     fit-margin-left="0"
     fit-margin-right="0"
     fit-margin-bottom="0" />
  <metadata
     id="metadata3782">
    <rdf:RDF>
      <cc:Work
         rdf:about="">
        <dc:format>image/svg+xml</dc:format>
        <dc:type
           rdf:resource="http://purl.org/dc/dcmitype/StillImage" />
        <dc:title></dc:title>
      </cc:Work>
    </rdf:RDF>
  </metadata>
  <defs
     id="defs3780" />
  <path
     id="path3674"
     d="M292.68797 29.50036L275.12791165 30.531399502L257.882751172 32.6591567969L240.98778667 35.8490175684L224.47831625 40.0663675L208.389638018 45.2765922754L192.757050078 51.4450775781L177.615850537 58.5372090918L163.0013375 66.5183725L148.948809072 75.3539534863L135.493563359 85.0093377344L122.670898467 95.4499109277L110.5161125 106.64105875L99.0645035645 118.548166885L88.3513697656 131.136621016L78.412009209 144.371806826L69.28172 158.21911L88.50047 169.43786L94.079494375 160.838874375L99.9698625 152.46061L106.180221875 144.336595625L112.71922 136.50036L134.68797 155.50036L146.990732344 142.542449531L160.31270625 130.623378125L174.583177031 119.808673281L189.73143 110.1638625L205.686750469 101.754473281L213.944962676 98.0335391016L222.37842375 94.646033125L230.978294355 91.6001462891L239.735735156 88.9040695313L248.641906816 86.5659937891L257.68797 84.59411L251.96922 55.78161L261.963615313 54.062805625L272.08294 52.7815925L282.325092187 51.914450625L292.68797 51.43786L292.68797 29.50036L292.68797 29.50036"
     style="fill:#000000;fill-opacity:1;stroke:none" />
  <path
     id="path3672"
     d="M307.31297 29.50036L307.31297 51.43786L317.675847813 51.914450625L327.918 52.7815925L338.037324688 54.062805625L348.03172 55.78161L342.31297 84.59411L351.359033184 86.5659937891L360.265204844 88.9040695313L369.022645645 91.6001462891L377.62251625 94.646033125L386.055977324 98.0335391016L394.314189531 101.754473281L410.26951 110.1638625L425.417762969 119.808673281L439.68823375 130.623378125L453.010207656 142.542449531L465.31297 155.50036L487.28172 136.50036L493.820718125 144.336595625L500.0310775 152.46061L505.921445625 160.838874375L511.50047 169.43786L530.71922 158.21911L521.588930132 144.371806167L511.649567773 131.136618555L500.936431294 118.548161743L489.484819062 106.641050312L477.330029448 95.4498988428L464.50736082 85.0093219141L451.052111548 75.3539341064L436.99958 66.51835L422.385064546 58.5371841748L407.243863555 51.4450512109L391.611275396 45.2765656885L375.522598438 40.0663421875L359.01313105 35.8489952881L342.118171602 32.6591395703L324.873018462 30.5313896143L307.31297 29.50036L307.31297 29.50036"
     style="fill:#000000;fill-opacity:1;stroke:none" />
  <path
     id="path3670"
     d="M300.00047 129.87536L291.609775313 130.085564688L283.3042225 130.704195L275.112418437 131.713095313L267.06297 133.09411L283.09422 213.78161L275.895278008 215.519541172L268.945252812 217.83722L262.269758086 220.707099453L255.8944075 224.1016325L249.844814727 227.993272109L244.146593438 232.35447125L238.825357305 237.157682891L233.90672 242.37536L171.93797 188.18786L166.696561367 194.482238516L161.751851563 201.02223875L157.116652227 207.798687734L152.803775 214.8024125L148.826031523 222.024240078L145.196233437 229.4549975L141.927192383 237.085511797L139.03172 244.90661L217.00047 271.65661L214.976015313 278.436961875L213.4631075 285.4474925L212.515755937 292.648519375L212.18797 300.00036L212.509478438 307.376059063L213.4463675 314.559835L214.957182813 321.549810937L217.00047 328.34411L139.25047 355.09411L142.139295938 362.910150156L145.38505625 370.539619375L148.980299688 377.972060781L152.917575 385.1970175L157.189430937 392.204032656L161.78841625 398.982649375L166.707079688 405.522410781L171.93797 411.81286L233.90672 357.62536L238.824701055 362.813294844L244.150384688 367.580113125L249.855699102 371.901377969L255.9125725 375.7526525L262.292933086 379.109499844L268.968709063 381.947483125L275.911828633 384.242165469L283.09422 385.96911L267.06297 466.68786L283.3042525 469.187165L291.609786562 469.88095875L300.00047 470.12536L308.391164688 469.880972812L316.6967175 469.1871425L332.93797 466.68786L316.90672 385.96911L324.089111367 384.242148242L331.032230938 381.947457813L337.708006914 379.109473477L344.0883675 375.75263L350.145240898 371.901362148L355.850555312 367.580104688L361.176238945 362.813292383L366.09422 357.62536L428.06297 411.81286L433.293820117 405.522428008L438.212464688 398.982663438L442.811447539 392.204030898L447.0833125 385.196995L451.020603398 377.972020352L454.615864063 370.539571562L457.86163832 362.910113242L460.75047 355.09411L383.00047 328.34411L385.043757187 321.54983625L386.5545725 314.5598575L387.491461563 307.3760675L387.81297 300.00036L387.485184063 292.648519375L386.5378325 285.4474925L385.024924688 278.436961875L383.00047 271.65661L460.96922 244.90661L458.073753359 237.085465859L454.80472625 229.45493L451.174945391 222.024169766L447.1972175 214.8023525L442.884349297 207.798645547L438.2491475 201.02221625L433.304418828 194.482231953L428.06297 188.18786L366.09422 242.37536L361.175582695 237.157682891L355.854346563 232.35447125L350.156125273 227.993272109L344.1065325 224.1016325L337.731181914 220.707099453L331.055687188 217.83722L324.105661992 215.519541172L316.90672 213.78161L332.93797 133.09411L324.888487812 131.713106563L316.6966875 130.704225L308.391153438 130.085598437L300.00047 129.87536L300.00047 129.87536"
     style="fill:#000000;fill-opacity:1;stroke:none" />
  <path
     id="path3668"
     d="M61.96922 171.03161L54.5793557813 185.671220195L48.0670375 200.798655937L42.4654817187 216.381644961L37.807905 232.387915L34.1275239063 248.785193789L31.457555 265.541209063L29.8312148437 282.623688555L29.28172 300.00036L29.8312148437 317.377014219L31.457555 334.459485625L34.1275239063 351.215499844L37.807905 367.6127825L42.4654817187 383.619059219L48.0670375 399.202055625L54.5793557813 414.329497344L61.96922 428.96911L81.18797 417.75036L76.5315428125 408.733615937L72.21162 399.5240525L68.2626846875 390.115142812L64.71922 380.50036L92.37547 371.12536L87.28864125 354.095948438L83.56565 336.5329925L82.2381942188 327.566584805L81.27881875 318.484970312L80.6965639063 309.294208789L80.50047 300.00036L80.6885729688 290.721458945L81.249468125 281.534115313L83.4691525 263.4728575L87.118558125 245.894100938L92.15672 228.87536L64.46922 219.50036L68.04798125 209.810613125L72.0556675 200.338745L76.4498175 191.072684375L81.18797 182.00036L61.96922 171.03161L61.96922 171.03161"
     style="fill:#000000;fill-opacity:1;stroke:none" />
  <path
     id="path3666"
     d="M538.03172 171.03161L518.81297 182.00036L523.5511225 191.072684375L527.9452725 200.338745L531.95295875 209.810613125L535.53172 219.50036L507.84422 228.87536L512.882381875 245.894067188L516.5317875 263.4728275L518.751471875 281.534104062L519.312367031 290.721455664L519.50047 300.00036L519.304376094 309.294208789L518.72212125 318.484970312L517.762745781 327.566584805L516.43529 336.5329925L512.71229875 354.095948438L507.62547 371.12536L535.28172 380.50036L531.738255312 390.115142812L527.78932 399.5240525L523.469397187 408.733615937L518.81297 417.75036L538.03172 428.96911L545.421584219 414.329494062L551.9339025 399.202044375L557.535458281 383.619038125L562.193035 367.6127525L565.873416094 351.215464688L568.543385 334.459451875L570.169725156 317.37699125L570.71922 300.00036L570.169725156 282.623705781L568.543385 265.541234375L565.873416094 248.785220156L562.193035 232.3879375L557.535458281 216.381660781L551.9339025 200.798664375L545.421584219 185.671222656L538.03172 171.03161L538.03172 171.03161"
     style="fill:#000000;fill-opacity:1;stroke:none" />
  <path
     id="path3664"
     d="M88.25047 430.34411L69.06297 441.53161L78.1894688281 455.406071548L88.1286784375 468.667201289L98.8450197656 481.28031562L110.30291375 493.210730937L122.466781328 504.423763638L135.301043438 514.884730117L148.770121016 524.558946772L162.838435 533.41173L177.470406328 541.408396196L192.630455938 548.514261758L208.283004766 554.694643081L224.39247375 559.914856563L240.923283828 564.140218599L257.839855938 567.336045586L275.106611016 569.467653921L292.68797 570.50036L292.68797 548.56286L282.325092187 548.02645625L272.08294 547.0756775L261.963615313 545.7200525L251.96922 543.96911L257.68797 515.15661L248.642479204 513.184819204L239.73669082 510.847496133L230.979468354 508.152743511L222.379675313 505.108664063L213.9461752 501.723360513L205.687831523 498.004935586L189.7320675 489.6011325L174.583291289 479.962076602L160.312410938 469.152589687L146.990334492 457.237493555L134.68797 444.28161L112.71922 463.50036L106.099385313 455.605619375L99.811075 447.4483675L93.8596496875 439.028049375L88.25047 430.34411L88.25047 430.34411"
     style="fill:#000000;fill-opacity:1;stroke:none" />
  <path
     id="path3796"
     d="M511.75047 430.34411L506.141290313 439.028049375L500.189865 447.4483675L493.901554688 455.605619375L487.28172 463.50036L465.31297 444.28161L453.010605508 457.237493555L439.688529062 469.152589687L425.417648711 479.962076602L410.2688725 489.6011325L394.313108477 498.004935586L386.0547648 501.723360513L377.621264688 505.108664063L369.021471646 508.152743511L360.26424918 510.847496133L351.358460796 513.184819204L342.31297 515.15661L348.03172 543.96911L338.037324688 545.7200525L327.918 547.0756775L317.675847813 548.02645625L307.31297 548.56286L307.31297 570.50036L324.894328325 569.467644033L342.161081602 567.336028359L359.07765103 564.140196318L375.608457812 559.91483125L391.717923149 554.694616494L407.370468242 548.514235391L422.530514292 541.408371279L437.1624825 533.4117075L451.230794067 524.558927393L464.699870195 514.884714297L477.534132085 504.423751553L489.698000937 493.2107225L501.155897954 481.280310479L511.872244336 468.667198828L521.811461284 455.406070889L530.93797 441.53161L511.75047 430.34411L511.75047 430.34411"
     style="fill:#000000;fill-opacity:1;stroke:none" />
</svg>
