<?xml version="1.0" encoding="UTF-8" standalone="no"?>
<!-- Generator: Adobe Illustrator 13.0.0, SVG Export Plug-In . SVG Version: 6.00 Build 14948)  -->

<svg
   xmlns:dc="http://purl.org/dc/elements/1.1/"
   xmlns:cc="http://creativecommons.org/ns#"
   xmlns:rdf="http://www.w3.org/1999/02/22-rdf-syntax-ns#"
   xmlns:svg="http://www.w3.org/2000/svg"
   xmlns="http://www.w3.org/2000/svg"
   xmlns:sodipodi="http://sodipodi.sourceforge.net/DTD/sodipodi-0.dtd"
   xmlns:inkscape="http://www.inkscape.org/namespaces/inkscape"
   sodipodi:docname="rebel_mod.svg"
   inkscape:version="0.91 r13725"
   xml:space="preserve"
   style="enable-background:new 0 0 300 300;"
   viewBox="0 0 300 300"
   height="300px"
   width="300px"
   y="0px"
   x="0px"
   id="Layer_1"
   version="1.1"><sodipodi:namedview
     inkscape:current-layer="Layer_1"
     inkscape:window-maximized="0"
     inkscape:window-y="0"
     inkscape:window-x="0"
     inkscape:cy="150"
     inkscape:cx="150"
     inkscape:zoom="1.1125147"
     showgrid="false"
     id="namedview3354"
     inkscape:window-height="1093"
     inkscape:window-width="1543"
     inkscape:pageshadow="2"
     inkscape:pageopacity="0"
     guidetolerance="10"
     gridtolerance="10"
     objecttolerance="10"
     borderopacity="1"
     bordercolor="#666666"
     pagecolor="#ffffff" /><metadata
     id="metadata3358"><rdf:RDF><cc:Work
         rdf:about=""><dc:format>image/svg+xml</dc:format><dc:type
           rdf:resource="http://purl.org/dc/dcmitype/StillImage" /><dc:title></dc:title></cc:Work></rdf:RDF></metadata><defs
     id="defs3356" /><path
     style="stroke:#000000;stroke-opacity:1"
     id="path3352"
     d="M7.42 145.986L9.10621875 128.630507812L12.8230625 111.74475L18.5434375 95.4576796875L26.24025 79.89825L35.88640625 65.1954140625L47.4548125 51.478125L60.918375 38.8753359375L76.25 27.516L76.859375 27.474875L76.988 28.126L73.3126992187 32.4231132812L66.24409375 42.26153125L57.8548789063 56.6438710938L53.8127602539 65.2273295898L50.21775 74.57275L47.3289350586 84.5554594727L45.4054023437 95.0507851563L44.7062387695 105.934054199L45.49053125 117.08059375L48.0173666992 128.365730957L52.5458320313 139.664792969L59.3350141602 150.853106934L68.644 161.806L73.671078125 165.8654375L79.3122167969 169.451851563L86.467125 172.7535L94.7073300781 174.778460938L103.604359375 174.5348125L108.1652854 173.25228418L112.729740234 171.030632813L117.244164795 167.745868164L121.655 163.274L124.86334375 157.95203125L127.663871094 151.551253906L130.1865 142.881L131.624628906 132.109058594L131.17165625 119.40321875L128.020980469 104.931269531L125.181940918 97.0854379883L121.366 88.861L120.121328125 86.431609375L115.800625 80.405875L107.523859375 72.677453125L101.626943359 68.7665019531L94.411 65.14L111.403 46.392L113.820328125 47.61575L119.972375 51.56125L128.209234375 58.639875L136.881 69.263L136.763078125 66.221171875L135.492875 58.123125L131.695734375 46.510015625L128.419982422 39.8669238281L123.997 32.923L150.342 3.033L176.422 32.642L174.534296875 35.607953125L170.315125 43.626375L165.930390625 55.378109375L164.352783203 62.2417324219L163.546 69.544L169.839625 61.59625L177.875828125 54.0915625L189.322 46.393L206.008 65.141L203.333015625 66.252125L196.641875 70.06475L187.935296875 77.29775L183.451443359 82.4215390625L179.214 88.67L175.890455078 95.8455214844L173.021328125 104.436046875L170.861630859 114.052267578L169.666375 124.304875L169.690572266 134.804560547L171.189234375 145.162015625L174.417373047 154.987931641L179.63 163.893L183.0790625 167.611609375L187.310867187 170.828572266L193.1435 173.678375L200.523945312 175.206818359L209.3991875 174.459703125L214.380790039 172.934623779L219.716210937 170.482830078L225.398823242 166.985047119L231.422 162.322L233.899980469 159.830931641L239.86234375 152.593265625L247.101722656 140.962310547L250.510490723 133.609758545L253.41075 125.291375L255.52657959 116.051323486L256.582058594 105.933767578L256.301266113 94.9828708496L254.40828125 83.242796875L250.627183105 70.7577092285L244.682050781 57.5717714844L236.296963379 43.7291472168L225.196 29.274L223.880375 27.877125L223.842203125 27.287390625L225.645 27.798L236.940046875 36.2669121094L248.341875 45.796921875L259.409765625 56.8054394531L269.703 69.709875L278.780859375 84.9276386719L286.202625 102.876140625L289.154748047 113.004859131L291.527578125 123.972791016L293.266025391 135.832112549L294.315 148.635L293.393780762 164.456390137L291.200558594 179.647402344L287.778736816 194.154174316L283.17171875 207.92284375L277.422907715 220.89954834L270.575707031 233.030425781L262.67352002 244.26161377L253.75975 254.53925L243.877800293 263.809472168L233.071074219 272.018417969L221.382975098 279.112225098L208.85690625 285.03703125L195.536270996 289.738974121L181.464472656 293.164191406L166.684914551 295.258820801L151.241 295.969L136.034910889 295.177611328L121.328771484 292.858578125L107.193086182 289.094037109L93.698359375 283.966125L80.915095459 277.556978516L68.9137988281 269.948734375L57.764973877 261.223529297L47.539125 251.4635L38.3067565918 240.750783203L30.1383730469 229.167515625L23.1044787598 216.795833984L17.275578125 203.717875L12.7221755371 190.015775391L9.51477539063 175.771671875L7.72388208008 161.067701172L7.42 145.986" /></svg>